<svg t="1693982653779" class="icon" viewBox="0 0 1024 1024" version="1.1" xmlns="http://www.w3.org/2000/svg" p-id="16361" width="200" height="200"><path d="M1000.448 369.664l-151.04-238.08c-13.312-20.992-40.96-27.136-61.44-13.824L34.304 594.432c-20.992 13.312-27.136 40.96-13.824 61.44l151.04 238.08c13.312 20.48 40.96 26.624 61.44 13.824l753.664-476.672c20.48-12.8 26.624-40.448 13.824-61.44z m-30.208 35.84L216.576 882.176c-6.656 4.096-15.36 2.048-19.456-4.608L46.08 640c-4.096-6.656-2.048-15.36 4.608-19.456L803.84 143.36c6.656-4.096 15.36-2.048 19.456 4.608l151.04 238.08c4.608 6.656 2.56 15.36-4.096 19.456zM320.512 254.464l12.288 30.208 16.384-28.16 32.256-2.56-22.016-24.064 7.68-31.744-29.696 13.312-27.648-16.896 3.584 32.256-24.576 20.992 31.744 6.656z m192-89.088l-15.36-28.672-13.312 29.696-32.256 6.144 24.064 21.504-4.096 32.256 28.16-16.384 29.184 13.824-6.656-31.744 22.528-23.552-32.256-3.072z m292.352 478.72l-25.6-19.968v32.256l-27.136 18.432 31.232 10.24 9.216 31.232 19.456-26.112 32.768 1.024-18.944-26.624 11.264-30.208-32.256 9.728zM699.904 773.12l-12.288-30.208-16.384 28.16-32.256 2.56 21.504 24.064-7.68 31.744 29.696-12.8 27.648 17.408-3.072-32.256 24.576-20.992-31.744-7.68z m-192.512 88.064l15.36 28.672 13.312-29.696 32.256-5.632-24.064-22.016 4.608-32.256-28.16 15.872-29.184-14.336 6.656 31.744-22.528 23.552 31.744 4.096zM218.624 380.416l25.6 19.968 0.512-32.256 27.136-17.92-30.72-10.24-8.704-31.232-19.456 26.112-32.768-2.048 18.944 26.624-11.264 30.72c-0.512 0 30.72-9.728 30.72-9.728z m-114.176 140.288c-3.584-137.728 63.488-273.408 187.904-352.256s275.968-80.896 399.36-19.456l29.696-18.944c-36.352-20.48-75.776-35.328-116.736-44.544-55.296-12.288-111.104-13.824-166.912-4.608-57.344 9.728-111.616 30.208-161.28 61.952-50.176 31.232-92.16 71.68-125.44 119.296-32.256 46.08-54.784 97.792-67.072 152.576-9.216 40.96-12.288 82.944-9.728 124.416 0 0.512 30.208-18.432 30.208-18.432z m808.96-20.992c3.584 137.728-63.488 273.408-187.904 352.256s-275.968 80.896-399.36 19.456l-29.696 18.944c36.352 20.48 75.776 35.328 116.736 44.544 55.296 12.288 111.104 13.824 166.912 4.608 57.344-9.728 111.616-30.208 161.28-61.44s91.648-71.68 124.928-119.296c32.256-46.08 54.784-97.792 67.072-152.576 9.216-41.472 12.288-82.944 9.728-124.416l-29.696 17.92z m-531.456-189.44c34.816-22.016 73.216-33.792 111.616-36.352l46.08-29.184c-60.928-7.168-121.856 6.656-174.08 39.936S274.944 367.104 255.488 424.96l46.08-29.184c18.944-33.792 45.568-63.488 80.384-85.504z m253.952 399.872c-34.816 22.016-73.216 33.792-111.616 36.352l-46.08 29.184c60.928 7.168 121.344-6.656 174.08-39.936 52.224-33.28 90.624-82.432 110.08-140.288l-46.08 29.184c-18.432 33.792-45.568 63.488-80.384 85.504z" fill="#e16531" p-id="16362"></path><path d="M208.896 599.04c-4.096-1.024-7.168-3.584-10.24-7.68-2.56-4.096-6.144-7.168-9.728-8.704-4.096-1.536-9.216-2.048-15.872-1.024-2.048 0-3.584 0-3.584-0.512-0.512-0.512 1.536-2.048 6.144-5.12 14.336-8.704 25.088-13.824 33.28-14.848 8.192-1.024 13.824 1.536 17.92 7.168 3.584 6.144 4.608 11.776 2.048 17.92l46.08-28.672v-17.408c0.512-3.072 1.024-5.12 2.048-6.144 2.048-1.536 10.752-1.536 25.088-1.024 14.848 1.024 22.528 2.56 24.064 4.608 1.536 2.56 0.512 4.608-3.072 7.168-9.216 5.632-16.384 11.776-20.48 18.432-4.608 6.656-7.168 14.336-8.704 23.552 0 2.048-0.512 3.072-1.024 3.584-0.512 0.512-1.024 0-1.536-0.512-0.512-0.512-1.024-2.048-1.024-3.072-1.536-6.656-3.584-14.336-7.168-24.576l-128 80.384c2.56 2.56 4.608 5.632 6.656 8.192 5.12 7.68 6.656 14.848 4.608 20.992-1.536 6.144-5.12 10.752-10.24 14.336-3.584 2.56-7.168 3.072-11.264 2.56-3.584-0.512-6.656-2.56-9.216-6.656-3.584-5.632-3.584-11.776 0-18.944 1.536-3.584 2.56-8.192 2.56-13.312s-1.536-9.728-4.096-14.336c-1.024-1.536-2.048-3.072-3.072-4.096s-1.536-2.048-2.048-2.56c-0.512-0.512-0.512-1.024 0-1.024 0.512-0.512 3.072 0 7.168 1.536 4.096 1.536 8.192 4.096 12.8 7.168l59.904-37.376z m-7.168 64l29.696-18.432-8.192-13.312c-4.096-6.656-8.704-13.312-13.312-20.48 23.04-11.264 35.84-15.36 37.888-11.264 1.024 1.536 0.512 3.584-1.536 7.168l12.8 20.48 26.112-16.384c0-8.704 0-13.824 0.512-15.36 0.512-1.536 1.536-2.56 3.072-3.584 1.536-1.024 4.608-1.536 9.216-1.536 4.608-0.512 10.24-0.512 15.872-0.512s10.24 0.512 12.288 1.024c2.56 0.512 4.096 1.024 4.608 2.048 1.024 1.536-0.512 5.12-4.608 9.728l32.768 51.712 12.8 19.456c0.512 1.024 1.024 2.048 1.024 3.072 0 1.024-1.024 2.56-2.56 5.12s-4.096 5.12-7.168 7.68c-3.072 2.56-6.144 5.12-9.728 7.168-2.56 1.536-4.608 2.048-6.144 1.536-1.536-0.512-3.072-1.536-4.096-3.584l-6.144-9.728-29.696 18.432 14.848 24.064c3.072 4.608 6.144 9.728 9.728 14.848l4.608 7.168c1.024 1.536 1.024 3.072 1.024 4.608-0.512 1.536-2.048 4.608-5.632 8.192-3.584 3.584-7.68 6.656-11.776 9.728-4.608 2.56-7.68 2.56-10.24-1.024l-5.12-8.704c-3.584-5.632-7.68-12.288-12.288-19.456l-13.312-21.504-30.208 18.944 6.144 9.728c1.024 1.536 1.024 3.072 1.024 4.608 0 1.536-1.536 4.096-4.096 6.656s-6.144 5.632-9.728 8.192-6.656 3.584-8.192 3.584c-1.536 0-2.56-0.512-3.584-1.536 0 0-1.536-3.072-4.608-8.192-3.072-5.12-5.632-9.728-8.192-13.824L180.736 691.2l-12.288-18.432c14.848-5.12 25.6-8.192 33.28-9.728z m20.48 33.792l30.208-18.944-16.384-26.112-26.624 16.896c1.024 2.048 0.512 4.096-1.024 6.144l13.824 22.016z m34.816-11.776l-30.208 18.944 17.92 28.16 30.208-18.944-17.92-28.16z m23.04-24.576l29.696-18.432-16.384-26.112-29.696 18.432 16.384 26.112z m33.792-11.264l-29.696 18.432 17.92 28.16 29.696-18.432-17.92-28.16zM437.76 471.04l86.016-54.272c-1.024-15.872 0-24.576 3.072-26.624 1.536-1.024 6.144-1.536 12.8-0.512 6.656 0.512 12.8 1.536 17.408 2.56 5.12 1.024 8.192 2.048 9.216 4.096 1.024 2.048 0.512 3.584-2.048 5.12L501.76 440.832c9.728-2.048 14.848-2.048 16.384 0 1.024 1.536 0 3.072-2.56 5.632-2.56 2.048-5.632 6.144-8.192 11.264-2.56 5.12-5.632 12.8-8.192 22.016l-8.192 27.648 37.888-24.576c0.512-12.8-0.512-25.088-3.072-36.352 11.264-1.024 20.992-1.024 29.184-1.024 8.192 0.512 12.8 1.536 13.312 2.56 0.512 1.024 0 3.072-2.56 5.12s-4.096 5.12-5.12 8.704c-1.024 3.584-2.048 8.704-2.56 15.872-1.536 15.36-6.144 31.232-13.312 47.616-7.168 16.384-16.384 32.256-27.136 47.104-10.752 15.36-17.408 23.552-19.456 24.576-0.512 0.512-1.024 0.512-1.536 0-0.512-0.512 0-1.024 0.512-2.56 17.92-36.352 28.16-70.144 31.232-100.864-12.8 15.36-21.504 28.672-27.136 40.448-0.512 1.024-1.024 1.536-2.048 2.048-1.024 0.512-2.048 0.512-4.096-0.512s-7.68-5.12-17.408-12.8c0.512 3.584 0 6.656-1.536 9.216-1.536 3.072-3.072 5.12-5.632 6.656-6.656 4.096-12.288 2.048-17.408-6.144-6.144-9.728-12.288-15.36-19.456-16.896l77.824 123.904c1.024 1.536 1.024 3.072 0 5.12s-3.072 4.608-6.656 8.192c-3.584 3.584-7.168 6.656-10.752 8.704-1.536 1.024-2.56 0.512-3.584-1.024l-5.12-9.216c-3.584-6.144-7.68-12.8-12.288-20.48l-40.448-64.512c2.048 12.288 2.048 26.624 0 43.008s-3.584 24.576-4.608 25.6c-0.512 0-0.512 0-1.024-0.512s-0.512-1.536-0.512-3.584c-1.024-20.48-4.096-39.424-8.704-56.832-4.608-17.408-11.776-35.84-20.992-56.32l-15.872 9.728c-3.072 2.048-5.12 4.096-6.656 7.168l-12.288-6.656c3.584-1.536 7.68-4.096 11.264-6.144l22.528-14.336-15.872-25.088C373.76 472.576 368.64 464.896 363.52 458.24c9.728-5.632 17.92-9.728 23.552-12.288 5.632-2.56 9.216-3.072 10.24-1.536 1.024 1.536 0 4.608-3.072 9.216l24.576 39.424 2.048-1.536c-0.512-6.144-0.512-11.264-0.512-15.36 0-3.584 1.024-6.144 2.048-7.168 3.072 0 7.68 0.512 15.36 2.048z m39.424-14.336L450.56 473.6c3.584 0.512 6.144 1.536 7.168 3.072s0 3.584-3.072 5.632L424.96 501.248l6.656 10.24c11.264-4.096 19.968-5.632 26.624-5.12 6.656 0.512 11.776 3.072 15.36 7.68 3.072-3.072 4.608-6.144 5.12-9.216 0.512-3.072 1.024-9.728 1.024-19.456-1.024-10.24-1.536-19.968-2.56-28.672z m-30.72-45.056c14.848-9.216 26.624-13.824 34.816-13.824 8.192 0 14.848 3.584 19.456 10.752 2.56 4.096 3.072 8.192 2.048 13.312-1.024 4.608-3.584 8.192-8.192 11.264-4.096 2.048-8.192 3.072-12.288 2.048-4.096-1.024-7.68-3.584-10.752-8.704-3.072-4.608-6.656-8.192-10.24-10.24-3.584-2.048-8.704-3.072-14.336-2.56-1.536 0-2.56 0-3.072-0.512 0 0 1.024-0.512 2.56-1.536z m141.312 129.024c-8.192 22.016-20.992 43.008-37.888 62.464-16.896 19.456-27.136 30.72-30.72 32.768-0.512 0.512-1.024 0.512-1.536 0-0.512-0.512 0-1.536 1.024-2.56 19.456-29.184 32.768-55.296 39.424-78.848 6.656-23.552 9.216-47.616 6.656-72.192 5.632-0.512 12.8-1.024 21.504-1.024 8.192 0 13.312 0 15.36 0.512 2.048 0.512 3.072 1.024 3.584 2.048 1.024 1.536 0 3.584-2.56 6.144-1.024 1.024-2.048 2.56-3.072 5.632-1.024 2.56-2.048 8.192-3.584 16.896-1.536 8.704-3.072 14.848-4.096 17.92 24.576-9.728 40.96-7.68 49.664 6.144 3.072 5.12 4.096 9.728 2.56 13.824-1.536 4.608-3.584 7.68-6.656 9.728s-6.656 2.56-10.752 2.048-7.68-2.56-10.24-5.632c-10.24-9.728-19.456-14.848-28.672-15.872zM647.68 347.648l36.864-23.04-19.456-30.72c-4.608-7.168-8.704-13.312-12.8-18.944 12.8-7.68 22.016-12.288 28.16-14.848 5.632-2.56 9.216-2.56 10.24-0.512 1.024 2.048 0.512 5.12-2.56 9.728L711.68 307.2l35.84-22.528c-0.512-9.216-1.024-14.848-0.512-17.408 0.512-2.048 1.536-4.096 3.584-5.12 2.048-1.024 7.168-2.048 15.872-2.56 8.704-0.512 15.36-0.512 20.48-0.512s8.192 1.536 9.728 3.584c1.536 2.048-0.512 5.632-5.12 10.24l33.28 53.248c1.536 2.56 3.072 4.608 4.096 6.144l3.584 4.608c0.512 1.024 0.512 2.048 0 3.584-1.024 1.536-3.584 4.608-8.704 9.216S814.08 358.4 808.96 361.472c-1.024 0.512-2.048 1.024-2.56 1.024-0.512 0-1.536-1.024-2.048-2.048l-7.68-12.8-41.472 26.112 34.816 55.808c3.072 4.608 6.144 9.728 9.728 14.848l5.12 7.168c0.512 1.024 1.024 2.048 1.024 2.56 0 0.512-1.536 2.56-3.584 5.12-2.56 3.072-5.632 6.656-10.24 10.752-4.608 4.096-7.68 6.656-9.216 7.68-1.024 0.512-2.048 0-3.584-2.048l-5.12-8.704c-3.584-5.632-7.68-12.288-12.288-19.456L727.04 392.192l-40.96 25.6 6.656 10.24c0.512 1.024 0.512 1.536 0.512 2.56s-1.536 2.56-3.584 5.12c-2.048 2.56-5.632 5.632-9.728 9.216-4.096 3.584-7.68 6.144-10.752 8.192-1.024 0.512-2.048 0-2.56-1.536-1.536-3.584-5.12-8.704-9.728-16.384L619.52 375.296c-3.584-6.144-7.68-12.288-12.288-17.92 15.872-5.12 29.184-8.192 40.448-9.728z m41.472-15.872l-35.84 22.528c0 2.048-1.024 4.608-3.072 6.656l31.232 50.176 40.96-25.6-33.28-53.76z m102.912 9.728l-33.28-53.248-41.472 26.112 33.28 53.248 41.472-26.112z" fill="#e16531" p-id="16363"></path></svg>