<svg t="1692150271529" class="icon" viewBox="0 0 1024 1024" version="1.1" xmlns="http://www.w3.org/2000/svg" p-id="64497" width="200" height="200"><path d="M236.3392 935.424a94.8736 94.8736 0 0 1-48.5376-13.4144 92.6208 92.6208 0 0 1-46.08-80.3328V229.888a131.9424 131.9424 0 0 1 132.6592-130.8672h483.7888A131.9936 131.9936 0 0 1 890.88 229.888v608.6656a92.4672 92.4672 0 0 1-47.4112 81.152 95.6928 95.6928 0 0 1-95.8976-0.8192l-218.4192-129.6384a3.4304 3.4304 0 0 0-3.2256 0l-243.5584 134.1952a95.1296 95.1296 0 0 1-46.0288 11.9808z m38.0416-744.2432a39.68 39.68 0 0 0-40.4992 38.7072v611.7888a2.304 2.304 0 0 0 1.6384 1.3824 2.816 2.816 0 0 0 2.4064-0.3072L481.28 708.5056a95.8464 95.8464 0 0 1 94.72 1.4848L794.624 839.68a2.816 2.816 0 0 0 2.3552 0.3584 3.2768 3.2768 0 0 0 1.7408-1.0752V229.888a39.68 39.68 0 0 0-40.5504-38.7072z" fill="#FC5B67" p-id="64498"></path><path d="M641.5872 374.3744H393.3184a46.08 46.08 0 1 1 0-92.16h248.2688a46.08 46.08 0 0 1 0 92.16z" fill="#FC5B67" p-id="64499"></path></svg>