<svg t="1697444288993" class="icon" viewBox="0 0 1278 1024" version="1.1" xmlns="http://www.w3.org/2000/svg" p-id="8117" width="200" height="200"><path d="M314.27554 585.309259a452.457007 424.022553 0 1 0 904.914014 0 452.457007 424.022553 0 1 0-904.914014 0Z" fill="#51F2F2" p-id="8118"></path><path d="M1270.57111 283.504971c-17.958602-49.885006-74.827509-109.747014-237.45263-121.719415A555.22012 555.22012 0 0 0 638.528081 0.158135 530.776467 530.776467 0 0 0 97.774612 475.562245C-4.988501 571.341458-8.979301 646.667817 7.482751 693.559723c23.944803 66.845908 95.280362 104.259663 192.057274 118.227465a558.71207 558.71207 0 0 0 930.854218-82.809111 49.885006 49.885006 0 0 0-22.448253-66.845908 49.885006 49.885006 0 0 0-66.845909 22.448253 448.965057 448.965057 0 0 1-402.572 239.94688 458.942058 458.942058 0 0 1-299.310038-107.751614 1525.982342 1525.982342 0 0 0 387.606499-73.829809 1446.665182 1446.665182 0 0 0 359.670895-168.112471 49.885006 49.885006 0 0 0 37.413755 24.443653 49.885006 49.885006 0 0 0 53.875807-45.894206 368.151346 368.151346 0 0 0 0-40.905705v-9.977001a349.195044 349.195044 0 0 0 78.319459-99.770013 149.655019 149.655019 0 0 0 14.466652-119.225165zM101.266563 660.136769a56.370057 56.370057 0 0 1 6.983901-40.406855 402.572001 402.572001 0 0 0 21.450552 68.342458 59.363157 59.363157 0 0 1-28.434453-27.935603z m598.620075-12.471252a1261.092959 1261.092959 0 0 1-443.477706 69.340159 391.597299 391.597299 0 0 1-58.864307-205.027376c0-226.976779 199.540025-412.050152 442.978856-412.050152a433.999555 433.999555 0 0 1 438.988055 359.670895 1258.598709 1258.598709 0 0 1-381.620298 188.066474z m420.530603-367.652496c33.921804 11.473551 49.885006 26.439053 56.370057 39.409155a55.871207 55.871207 0 0 1-6.9839 41.404555 123.714816 123.714816 0 0 1-8.979302 15.464352 479.893761 479.893761 0 0 0-40.406855-96.278062z" fill="#333333" p-id="8119"></path></svg>