<svg t="1692583716430" class="icon" viewBox="0 0 1024 1024" version="1.1" xmlns="http://www.w3.org/2000/svg" p-id="5224" width="200" height="200"><path d="M0 0m512 0l0 0q512 0 512 512l0 0q0 512-512 512l0 0q-512 0-512-512l0 0q0-512 512-512Z" fill="#F62D5E" p-id="5225"></path><path d="M220.5696 312.9344H479.232v21.8112c-15.5648 2.0992-26.4192 5.4272-32.3072 10.1888-6.0416 4.6592-9.0624 12.032-9.0624 22.0672 0 14.2848 9.984 44.544 30.0544 90.8288 20.0704 46.2336 48.1792 104.1408 84.48 173.7216 37.9392-84.1216 64-144.7936 78.0288-181.9648 14.0288-37.3248 20.992-62.8736 20.992-76.8 0-11.6224-3.584-20.48-10.752-26.2144-7.168-5.888-19.1488-9.728-35.9424-11.52v-22.1184h199.5776v22.1184c-19.5584 1.4848-35.84 7.5776-48.9984 18.2272-13.056 10.8032-28.16 32.4608-45.056 65.28a4548.8128 4548.8128 0 0 0-75.9296 158.208 6932.5824 6932.5824 0 0 0-85.3504 194.4576c-13.568 24.832-56.5248 25.6512-68.4032 0-15.6672-32.1536-37.1712-76.3904-64.3584-132.9664-97.28-202.0864-161.3824-303.2064-192.0512-303.2064h-3.5328v-22.1184z" fill="#FFFFFF" p-id="5226"></path></svg>