<svg t="1693961853981" class="icon" viewBox="0 0 1024 1024" version="1.1" xmlns="http://www.w3.org/2000/svg" p-id="12354" width="200" height="200"><path d="M638.365 540.697l7.26-6.686c-41.365-48.609-96.185-86.319-159.035-107.949 66.36-41.35 110.266-112.89 110.266-194.284C596.855 103.77 488.345 0 354.49 0S112.125 103.77 112.125 231.778c0 84.675 47.505 158.715 118.395 199.164-0.43-0.25-0.885-0.46-1.315-0.71C94.948 481.342 0 606.672 0 753.281c0 103.624 47.498 196.563 122.703 260.254l-0.085 0.074-0.058 0.045c5.683 6.275 14.067 10.346 23.553 10.346 17.112 0 30.987-12.971 30.987-28.971 0-8.135-3.615-15.459-9.39-20.72l0.035-0.029C102.223 921.135 60.593 841.875 60.593 753.281c0-160.01 135.637-289.719 302.958-289.719 96.705 0 182.76 43.38 238.23 110.844l0.109-0.1c5.546 6.225 13.615 10.255 22.735 10.255 16.686 0 30.205-13.165 30.205-29.415 0-8.265-3.535-15.725-9.185-21.064l-7.28 6.615z m-465.65-308.919c0-96.009 81.38-173.834 181.775-173.834 100.39 0 181.774 77.825 181.774 173.834 0 96-81.385 173.829-181.774 173.829-100.395 0-181.775-77.829-181.775-173.829z m181.747 231.785c-0.117 0-0.235-0.016-0.352-0.016 0.127 0 0.252 0.011 0.38 0.011 3.748 0 7.47-0.11 11.177-0.271-3.717 0.165-7.447 0.276-11.205 0.276z m-112.967-26.741c1.32 0.67 2.657 1.311 3.993 1.955-1.338-0.644-2.671-1.285-3.993-1.955z m13.813 6.431c1.167 0.5 2.322 1.024 3.5 1.51-1.178-0.486-2.333-1.01-3.5-1.51z m16.757 6.535c1.033 0.354 2.087 0.664 3.127 1.015-1.04-0.351-2.094-0.66-3.127-1.015z m14.02 4.345z m15.968 3.92c0.972 0.21 1.93 0.45 2.905 0.645-0.976-0.195-1.933-0.435-2.905-0.645z m17.292 3.05c1.382 0.19 2.78 0.335 4.17 0.505-1.39-0.17-2.787-0.315-4.17-0.505z m15.345 1.62c1.53 0.12 3.055 0.245 4.593 0.335-1.538-0.09-3.063-0.215-4.593-0.335z m129.937-24.5z m-22.605 9.69c-0.472 0.17-0.938 0.359-1.41 0.529 0.473-0.17 0.938-0.359 1.41-0.529z m-7.904 2.779c-1.085 0.36-2.178 0.71-3.27 1.061 1.092-0.351 2.182-0.7 3.27-1.061z m-9.368 2.941z m-13.322 3.43z m-10.335 2.169z m-10.403 1.741z m-13.565 1.545zM1024 770.661c0 16.005-13.56 28.975-30.295 28.975H872.521v115.89c0 16-13.561 28.97-30.296 28.97-16.734 0-30.295-12.97-30.295-28.97v-115.89H690.745c-16.735 0-30.295-12.97-30.295-28.975 0-16 13.56-28.97 30.295-28.97H811.93v-115.89c0-16 13.561-28.97 30.295-28.97 16.735 0 30.296 12.97 30.296 28.97v115.89h121.185c16.734 0 30.294 12.97 30.294 28.97z" fill="#e62225" p-id="12355"></path></svg>