<svg t="1692603264946" class="icon" viewBox="0 0 1024 1024" version="1.1" xmlns="http://www.w3.org/2000/svg" p-id="30050" width="200" height="200"><path d="M467.731692 43.047385C347.451077 46.001231 247.847385 166.754462 252.100923 304.600615c2.520615 83.101538 42.771692 158.011077 100.745846 202.555077 34.697846 26.584615 75.697231 42.377846 118.862769 42.535385 43.913846 0.236308 85.543385-15.596308 120.556308-42.377846 60.967385-46.395077 102.242462-125.833846 101.415385-213.070769C692.342154 155.017846 588.957538 40.093538 467.731692 43.047385z" fill="#1296db" p-id="30051"></path><path d="M529.408 616.329846c-18.510769 6.065231-37.769846 9.649231-57.737846 9.609846-43.165538-0.236308-84.164923-15.990154-118.862769-42.574769-56.950154 20.361846-304.246154 139.539692-304.246154 157.696l0 133.592615c0 19.889231 15.320615 25.954462 34.225231 25.954462l501.090462 0c-45.725538-47.537231-74.082462-112.443077-74.082462-184.083692C509.833846 681.078154 516.883692 647.325538 529.408 616.329846z" fill="#1296db" p-id="30052"></path><path d="M769.102769 505.974154c-113.782154 0-206.257231 94.404923-206.257231 210.589538 0 116.066462 92.514462 210.550154 206.257231 210.550154s206.296615-94.444308 206.296615-210.550154C975.438769 600.379077 882.884923 505.974154 769.102769 505.974154zM766.936615 824.438154l-19.259077 23.670154-105.353846-113.545846 38.754462-36.036923 63.960615 68.883692 128.866462-158.72 41.117538 33.437538L766.936615 824.438154z" fill="#1296db" p-id="30053"></path></svg>