<svg t="1692855078630" class="icon" viewBox="0 0 1030 1024" version="1.1" xmlns="http://www.w3.org/2000/svg" p-id="24331" width="200" height="200"><path d="M669.753977 1024l-145.723144-248.770224c-5.70749 0.26022-11.848679 0.26022-17.556169 0l-145.723144 248.770224-23.801446-26.54243s-59.364833-66.21729-120.742034-134.585732c-91.042269-18.718485-179.360903-36.430786-180.262998-36.621614L0 819.068155l166.211124-283.622342 44.896606 26.316906-129.294594 220.735866c36.04913 7.268809 94.563911 19.082793 153.148085 31.226388l8.396429 1.7348 5.724838 6.366713c39.345249 43.821031 78.58641 87.555322 102.682772 114.496756l125.911735-215.028377 15.977502 1.006184 5.343182 0.34696c5.655446 0.381656 11.015976 0.745964 16.16833 0.745963s10.512884-0.364308 16.185678-0.745963l5.343181-0.34696 15.977502-1.006184 125.929084 214.872245c24.113711-26.88939 63.354871-70.641029 102.70012-114.496756l5.724838-6.366713 8.396428-1.7348c58.584173-12.056855 117.098955-23.905535 153.148085-31.226388L819.241635 561.728023l44.896607-26.316906 166.211124 283.63969-35.702171 7.199417c-0.902096 0.17348-89.220729 17.903129-180.262998 36.621614-61.3772 68.351094-120.724685 134.585732-120.742033 134.585732z" fill="#d81e06" p-id="24332"></path><path d="M515.183357 774.969556A387.64091 387.64091 0 0 1 241.657547 113.525268a386.86025 386.86025 0 0 1 660.29932 273.95951c0 213.675233-173.514629 387.484778-386.77351 387.484778z m0-722.925576c-184.582649 0-334.816271 150.476494-334.816271 335.440798s150.16423 335.440798 334.816271 335.440798 334.816271-150.476494 334.81627-335.440798S699.731309 52.04398 515.183357 52.04398z" fill="#d81e06" p-id="24333"></path><path d="M332.491639 307.753401h108.390263q4.822742-9.038305 9.315872-18.232741h31.226388q-4.475782 9.15974-9.107697 18.232741h231.890627v27.756789H457.709455q-14.849882 26.559778-30.914124 49.927525v196.951768h-30.098768v-156.73912a454.89908 454.89908 0 0 1-57.473902 58.462738q-10.703712-15.856066-18.631745-26.54243 60.631237-48.938689 104.625748-122.060481h-92.725025zM331.693632 231.665102h104.608399v-35.26847h30.116117v35.26847h110.177105v-35.667474h30.116116v35.667474h103.029733v27.739442h-103.029733v28.936452h-30.116116v-28.936452h-110.177105v24.582106H436.302031v-24.582106h-104.608399v-27.739442z" fill="#d81e06" p-id="24334"></path><path d="M456.130788 454.37864h119.284801v-19.412404l57.855558-37.246142h-155.750284v-26.958781h204.862453v26.941433l-76.868958 48.747861v7.928033h104.226744v27.75679h-104.209396v52.703203q0 46.839582-43.196503 46.839582-24.963762 0-68.958274-0.399004-1.977671-15.058058-5.204398-32.093787 36.430786 3.157335 66.581598 3.174682 20.609416 0 20.609416-22.188083v-48.053941h-119.232757v-27.75679z" fill="#d81e06" p-id="24335"></path></svg>